<svg xmlns="http://www.w3.org/2000/svg" width="512" height="512" viewBox="0 0 31.69 31.689"><g fill="#FFDA44"><path d="M15.844 0C8.479.022 10.358 7.399 3.145 8.265A1.62 1.62 0 0 0 1.72 9.951c.688 14.641 10.7 20.307 13.437 21.586.437.204.939.204 1.375 0 2.738-1.281 12.749-6.947 13.437-21.586a1.622 1.622 0 0 0-1.426-1.686C21.331 7.399 23.208.022 15.844 0zm.731 30.211a1.627 1.627 0 0 1-1.464 0C12.061 28.67 3.984 23.45 2.967 10.994a1.623 1.623 0 0 1 1.274-1.717c3.357-.722 4.83-2.856 6.06-4.634 1.332-1.928 2.382-3.451 5.543-3.461 3.159.01 4.211 1.533 5.543 3.461 1.228 1.778 2.699 3.912 6.057 4.634a1.62 1.62 0 0 1 1.275 1.715c-1.017 12.46-9.098 17.682-12.144 19.219z"/><path d="M20.414 5.313c-1.311-1.897-2.033-2.942-4.562-2.95-2.545.008-3.268 1.053-4.578 2.95-1.186 1.717-2.701 3.913-5.888 4.89a1.62 1.62 0 0 0-1.133 1.743c1.243 10.392 7.719 15.179 10.802 16.896.49.271 1.089.272 1.579 0 3.081-1.716 9.56-6.502 10.802-16.896a1.622 1.622 0 0 0-1.134-1.743c-3.187-.977-4.701-3.172-5.888-4.89z"/></g></svg>